<svg id="svg" version="1.1" xmlns="http://www.w3.org/2000/svg" xmlns:xlink="http://www.w3.org/1999/xlink" width="400" height="400" viewBox="0, 0, 400,400"><g id="svgg"><path id="path0" d="M197.600 22.000 C 197.600 22.220,197.412 22.400,197.182 22.400 C 196.952 22.400,196.322 22.842,195.782 23.382 L 194.800 24.364 194.800 61.796 C 194.800 101.736,194.775 101.200,196.646 101.200 C 196.951 101.200,197.200 101.380,197.200 101.600 C 197.200 101.829,198.400 102.000,200.000 102.000 C 201.600 102.000,202.800 101.829,202.800 101.600 C 202.800 101.380,203.049 101.200,203.354 101.200 C 205.225 101.200,205.200 101.736,205.200 61.796 L 205.200 24.364 204.218 23.382 C 203.678 22.842,203.048 22.400,202.818 22.400 C 202.588 22.400,202.400 22.220,202.400 22.000 C 202.400 21.778,201.333 21.600,200.000 21.600 C 198.667 21.600,197.600 21.778,197.600 22.000 M71.041 42.287 C 70.157 42.514,68.400 44.173,68.400 44.782 C 68.400 45.012,68.220 45.200,68.000 45.200 C 67.780 45.200,67.600 46.190,67.600 47.400 C 67.600 48.610,67.780 49.600,68.000 49.600 C 68.220 49.600,68.400 49.873,68.400 50.208 C 68.400 50.542,79.923 62.332,94.008 76.408 L 119.615 102.000 122.221 102.000 C 126.033 102.000,127.600 100.431,127.600 96.613 C 127.600 95.138,127.426 94.000,127.200 94.000 C 126.980 94.000,126.800 93.825,126.800 93.611 C 126.800 93.024,124.128 90.177,116.400 82.530 C 107.958 74.176,110.230 76.439,101.008 67.200 C 96.726 62.910,92.851 59.040,92.398 58.600 C 91.944 58.160,88.538 54.702,84.828 50.916 C 76.020 41.927,74.983 41.278,71.041 42.287 M323.455 42.979 C 322.605 43.561,319.058 46.954,315.573 50.518 C 312.088 54.083,308.733 57.499,308.118 58.109 C 305.652 60.554,292.922 73.270,291.800 74.409 C 291.140 75.079,287.450 78.748,283.600 82.563 C 275.753 90.338,273.200 93.051,273.200 93.615 C 273.200 93.827,273.020 94.000,272.800 94.000 C 272.574 94.000,272.400 95.138,272.400 96.613 C 272.400 100.432,273.966 102.000,277.783 102.000 L 280.392 102.000 305.996 76.413 C 320.078 62.341,331.600 50.551,331.600 50.213 C 331.600 49.876,331.780 49.600,332.000 49.600 C 332.220 49.600,332.400 48.610,332.400 47.400 C 332.400 46.190,332.220 45.200,332.000 45.200 C 331.780 45.200,331.600 45.012,331.600 44.782 C 331.600 42.395,326.088 41.175,323.455 42.979 M42.800 116.400 C 42.800 116.620,42.080 116.800,41.200 116.800 C 40.320 116.800,39.600 116.980,39.600 117.200 C 39.600 117.420,38.981 117.600,38.224 117.600 C 37.467 117.600,36.736 117.780,36.600 118.000 C 36.464 118.220,36.003 118.400,35.576 118.400 C 35.149 118.400,34.800 118.580,34.800 118.800 C 34.800 119.020,34.260 119.200,33.600 119.200 C 32.940 119.200,32.400 119.380,32.400 119.600 C 32.400 119.820,32.040 120.000,31.600 120.000 C 31.160 120.000,30.800 120.180,30.800 120.400 C 30.800 120.620,30.564 120.800,30.275 120.800 C 29.987 120.800,29.364 121.160,28.892 121.600 C 28.420 122.040,27.796 122.400,27.505 122.400 C 27.214 122.400,26.717 122.760,26.400 123.200 C 26.083 123.640,25.670 124.000,25.483 124.000 C 25.296 124.000,24.897 124.225,24.596 124.500 C 24.295 124.775,23.289 125.630,22.362 126.400 C 21.434 127.170,20.388 128.139,20.037 128.554 C 19.687 128.969,18.635 130.090,17.700 131.044 C 16.765 131.998,16.000 133.014,16.000 133.301 C 16.000 133.588,15.640 134.083,15.200 134.400 C 14.760 134.717,14.400 135.257,14.400 135.600 C 14.400 135.943,14.040 136.483,13.600 136.800 C 13.160 137.117,12.800 137.697,12.800 138.088 C 12.800 138.480,12.620 138.800,12.400 138.800 C 12.180 138.800,12.000 139.072,12.000 139.405 C 12.000 139.738,11.841 140.323,11.647 140.705 C 11.452 141.087,11.071 141.940,10.800 142.600 C 10.529 143.260,10.148 144.113,9.953 144.495 C 9.759 144.877,9.600 145.606,9.600 146.115 C 9.600 146.624,9.375 147.265,9.100 147.540 C 8.367 148.273,8.367 251.727,9.100 252.460 C 9.375 252.735,9.600 253.376,9.600 253.885 C 9.600 254.394,9.759 255.123,9.953 255.505 C 10.148 255.887,10.529 256.740,10.800 257.400 C 11.071 258.060,11.452 258.913,11.647 259.295 C 11.841 259.677,12.000 260.262,12.000 260.595 C 12.000 260.928,12.180 261.200,12.400 261.200 C 12.620 261.200,12.800 261.436,12.800 261.725 C 12.800 262.013,13.160 262.636,13.600 263.108 C 14.040 263.580,14.400 264.204,14.400 264.495 C 14.400 264.786,14.760 265.283,15.200 265.600 C 15.640 265.917,16.000 266.412,16.000 266.699 C 16.000 266.986,16.765 268.002,17.700 268.956 C 18.635 269.910,19.687 271.031,20.037 271.446 C 20.388 271.861,21.434 272.830,22.362 273.600 C 23.289 274.370,24.295 275.225,24.596 275.500 C 24.897 275.775,25.296 276.000,25.483 276.000 C 25.670 276.000,26.083 276.360,26.400 276.800 C 26.717 277.240,27.297 277.600,27.688 277.600 C 28.080 277.600,28.400 277.750,28.400 277.933 C 28.400 278.395,33.144 280.800,34.056 280.800 C 34.465 280.800,34.800 280.980,34.800 281.200 C 34.800 281.420,35.149 281.600,35.576 281.600 C 36.003 281.600,36.464 281.780,36.600 282.000 C 36.736 282.220,37.467 282.400,38.224 282.400 C 38.981 282.400,39.600 282.580,39.600 282.800 C 39.600 283.020,40.320 283.200,41.200 283.200 C 42.080 283.200,42.800 283.380,42.800 283.600 C 42.800 283.866,95.467 284.000,200.000 284.000 C 304.533 284.000,357.200 283.866,357.200 283.600 C 357.200 283.380,357.920 283.200,358.800 283.200 C 359.680 283.200,360.400 283.020,360.400 282.800 C 360.400 282.580,361.019 282.400,361.776 282.400 C 362.533 282.400,363.264 282.220,363.400 282.000 C 363.536 281.780,363.997 281.600,364.424 281.600 C 364.851 281.600,365.200 281.420,365.200 281.200 C 365.200 280.980,365.639 280.800,366.176 280.800 C 366.713 280.800,367.264 280.620,367.400 280.400 C 367.536 280.180,367.997 280.000,368.424 280.000 C 368.851 280.000,369.200 279.820,369.200 279.600 C 369.200 279.380,369.436 279.200,369.725 279.200 C 370.013 279.200,370.636 278.840,371.108 278.400 C 371.580 277.960,372.204 277.600,372.495 277.600 C 372.786 277.600,373.283 277.240,373.600 276.800 C 373.917 276.360,374.330 276.000,374.517 276.000 C 374.704 276.000,375.103 275.775,375.404 275.500 C 375.705 275.225,376.711 274.370,377.638 273.600 C 378.566 272.830,379.612 271.861,379.963 271.446 C 380.313 271.031,381.365 269.910,382.300 268.956 C 383.235 268.002,384.000 266.986,384.000 266.699 C 384.000 266.412,384.360 265.917,384.800 265.600 C 385.240 265.283,385.600 264.743,385.600 264.400 C 385.600 264.057,385.960 263.517,386.400 263.200 C 386.840 262.883,387.200 262.303,387.200 261.912 C 387.200 261.520,387.380 261.200,387.600 261.200 C 387.820 261.200,388.000 260.928,388.000 260.595 C 388.000 260.262,388.159 259.677,388.353 259.295 C 388.548 258.913,388.929 258.060,389.200 257.400 C 389.471 256.740,389.852 255.887,390.047 255.505 C 390.241 255.123,390.400 254.394,390.400 253.885 C 390.400 253.376,390.625 252.735,390.900 252.460 C 391.295 252.065,391.400 241.035,391.400 200.000 C 391.400 158.965,391.295 147.935,390.900 147.540 C 390.625 147.265,390.400 146.624,390.400 146.115 C 390.400 145.606,390.241 144.877,390.047 144.495 C 389.852 144.113,389.471 143.260,389.200 142.600 C 388.929 141.940,388.548 141.087,388.353 140.705 C 388.159 140.323,388.000 139.738,388.000 139.405 C 388.000 139.072,387.820 138.800,387.600 138.800 C 387.380 138.800,387.200 138.480,387.200 138.088 C 387.200 137.697,386.840 137.117,386.400 136.800 C 385.960 136.483,385.600 135.943,385.600 135.600 C 385.600 135.257,385.240 134.717,384.800 134.400 C 384.360 134.083,384.000 133.588,384.000 133.301 C 384.000 133.014,383.235 131.998,382.300 131.044 C 381.365 130.090,380.313 128.969,379.963 128.554 C 379.612 128.139,378.566 127.170,377.638 126.400 C 376.711 125.630,375.705 124.775,375.404 124.500 C 375.103 124.225,374.704 124.000,374.517 124.000 C 374.330 124.000,373.917 123.640,373.600 123.200 C 373.283 122.760,372.786 122.400,372.495 122.400 C 372.204 122.400,371.580 122.040,371.108 121.600 C 370.636 121.160,370.013 120.800,369.725 120.800 C 369.436 120.800,369.200 120.620,369.200 120.400 C 369.200 120.180,368.840 120.000,368.400 120.000 C 367.960 120.000,367.600 119.820,367.600 119.600 C 367.600 119.380,367.060 119.200,366.400 119.200 C 365.740 119.200,365.200 119.020,365.200 118.800 C 365.200 118.580,364.851 118.400,364.424 118.400 C 363.997 118.400,363.536 118.220,363.400 118.000 C 363.264 117.780,362.533 117.600,361.776 117.600 C 361.019 117.600,360.400 117.420,360.400 117.200 C 360.400 116.980,359.680 116.800,358.800 116.800 C 357.920 116.800,357.200 116.620,357.200 116.400 C 357.200 116.134,304.533 116.000,200.000 116.000 C 95.467 116.000,42.800 116.134,42.800 116.400 M126.400 166.400 C 126.400 166.620,127.210 166.800,128.200 166.800 C 129.190 166.800,130.000 166.980,130.000 167.200 C 130.000 167.420,130.529 167.600,131.176 167.600 C 131.823 167.600,132.464 167.780,132.600 168.000 C 132.736 168.220,133.287 168.400,133.824 168.400 C 134.361 168.400,134.800 168.580,134.800 168.800 C 134.800 169.020,135.160 169.200,135.600 169.200 C 136.040 169.200,136.400 169.380,136.400 169.600 C 136.400 169.820,136.760 170.000,137.200 170.000 C 137.640 170.000,138.000 170.158,138.000 170.351 C 138.000 170.545,138.540 170.927,139.200 171.200 C 139.860 171.473,140.400 171.843,140.400 172.022 C 140.400 172.200,140.715 172.448,141.100 172.573 C 141.954 172.849,148.000 178.569,148.000 179.101 C 148.000 179.310,148.540 180.046,149.200 180.737 C 149.860 181.428,150.400 182.264,150.400 182.596 C 150.400 182.928,150.580 183.200,150.800 183.200 C 151.020 183.200,151.200 183.560,151.200 184.000 C 151.200 184.440,151.380 184.800,151.600 184.800 C 151.820 184.800,152.000 185.160,152.000 185.600 C 152.000 186.040,152.180 186.400,152.400 186.400 C 152.620 186.400,152.800 186.760,152.800 187.200 C 152.800 187.640,152.980 188.000,153.200 188.000 C 153.420 188.000,153.600 188.439,153.600 188.976 C 153.600 189.513,153.780 190.064,154.000 190.200 C 154.220 190.336,154.400 191.067,154.400 191.824 C 154.400 192.581,154.580 193.200,154.800 193.200 C 155.051 193.200,155.200 195.725,155.200 199.976 C 155.200 204.063,155.041 206.851,154.800 207.000 C 154.580 207.136,154.400 207.867,154.400 208.624 C 154.400 209.381,154.220 210.000,154.000 210.000 C 153.780 210.000,153.600 210.439,153.600 210.976 C 153.600 211.513,153.420 212.064,153.200 212.200 C 152.980 212.336,152.800 212.887,152.800 213.424 C 152.800 213.961,152.620 214.400,152.400 214.400 C 152.180 214.400,152.000 214.678,152.000 215.017 C 152.000 215.356,151.640 216.020,151.200 216.492 C 150.760 216.964,150.400 217.587,150.400 217.875 C 150.400 218.164,150.250 218.400,150.068 218.400 C 149.885 218.400,149.481 218.895,149.169 219.500 C 148.434 220.929,141.435 227.872,140.398 228.201 C 139.959 228.340,139.600 228.622,139.600 228.827 C 139.600 229.032,139.240 229.200,138.800 229.200 C 138.360 229.200,138.000 229.380,138.000 229.600 C 138.000 229.820,137.640 230.000,137.200 230.000 C 136.760 230.000,136.400 230.180,136.400 230.400 C 136.400 230.620,136.040 230.800,135.600 230.800 C 135.160 230.800,134.800 230.980,134.800 231.200 C 134.800 231.420,134.451 231.600,134.024 231.600 C 133.597 231.600,133.136 231.780,133.000 232.000 C 132.864 232.220,132.234 232.400,131.600 232.400 C 130.966 232.400,130.336 232.580,130.200 232.800 C 130.064 233.020,129.153 233.200,128.176 233.200 C 127.199 233.200,126.400 233.380,126.400 233.600 C 126.400 233.840,124.808 234.000,122.424 234.000 C 120.204 234.000,118.338 233.823,118.200 233.600 C 118.064 233.380,116.973 233.200,115.776 233.200 C 114.579 233.200,113.600 233.020,113.600 232.800 C 113.600 232.580,113.060 232.400,112.400 232.400 C 111.740 232.400,111.200 232.220,111.200 232.000 C 111.200 231.780,110.660 231.600,110.000 231.600 C 109.340 231.600,108.800 231.420,108.800 231.200 C 108.800 230.980,108.440 230.800,108.000 230.800 C 107.560 230.800,107.200 230.664,107.200 230.498 C 107.200 230.331,106.615 229.936,105.900 229.620 C 105.185 229.303,104.251 228.720,103.825 228.322 C 103.398 227.925,102.897 227.600,102.710 227.600 C 102.010 227.600,94.800 220.543,94.800 219.858 C 94.800 219.593,94.440 219.117,94.000 218.800 C 93.560 218.483,93.200 217.903,93.200 217.512 C 93.200 217.120,93.020 216.800,92.800 216.800 C 92.580 216.800,92.400 216.440,92.400 216.000 C 92.400 215.560,92.220 215.200,92.000 215.200 C 91.780 215.200,91.600 214.912,91.600 214.560 C 91.600 214.209,91.312 213.264,90.959 212.460 C 89.417 208.946,89.278 208.397,88.768 203.800 C 88.218 198.846,88.969 190.837,90.046 190.171 C 90.241 190.051,90.400 189.624,90.400 189.222 C 90.400 188.820,90.669 187.976,90.998 187.346 C 91.326 186.716,91.596 185.885,91.598 185.500 C 91.599 185.115,91.780 184.800,92.000 184.800 C 92.220 184.800,92.400 184.440,92.400 184.000 C 92.400 183.560,92.580 183.200,92.800 183.200 C 93.020 183.200,93.200 182.928,93.200 182.596 C 93.200 182.264,93.740 181.428,94.400 180.737 C 95.060 180.046,95.600 179.316,95.600 179.115 C 95.600 178.913,96.545 177.860,97.700 176.775 C 101.064 173.614,101.552 173.200,101.910 173.200 C 102.097 173.200,102.607 172.885,103.045 172.500 C 103.483 172.115,104.261 171.558,104.775 171.262 C 107.692 169.584,108.481 169.200,109.012 169.200 C 109.335 169.200,109.600 169.020,109.600 168.800 C 109.600 168.580,109.960 168.400,110.400 168.400 C 110.840 168.400,111.200 168.220,111.200 168.000 C 111.200 167.780,111.819 167.600,112.576 167.600 C 113.333 167.600,114.064 167.420,114.200 167.200 C 114.336 166.980,115.337 166.800,116.424 166.800 C 117.511 166.800,118.400 166.620,118.400 166.400 C 118.400 166.160,120.000 166.000,122.400 166.000 C 124.800 166.000,126.400 166.160,126.400 166.400 M205.200 166.400 C 205.200 166.620,206.089 166.800,207.176 166.800 C 208.263 166.800,209.264 166.980,209.400 167.200 C 209.536 167.420,210.166 167.600,210.800 167.600 C 211.434 167.600,212.064 167.780,212.200 168.000 C 212.336 168.220,212.887 168.400,213.424 168.400 C 213.961 168.400,214.400 168.580,214.400 168.800 C 214.400 169.020,214.940 169.200,215.600 169.200 C 216.260 169.200,216.800 169.380,216.800 169.600 C 216.800 169.820,217.078 170.000,217.417 170.000 C 217.756 170.000,218.420 170.360,218.892 170.800 C 219.364 171.240,219.987 171.600,220.275 171.600 C 220.564 171.600,220.800 171.768,220.800 171.973 C 220.800 172.178,221.151 172.457,221.580 172.594 C 227.210 174.381,225.879 183.200,219.978 183.200 C 218.502 183.200,217.705 182.995,217.247 182.497 C 216.891 182.111,216.105 181.540,215.500 181.230 C 214.895 180.919,214.400 180.515,214.400 180.332 C 214.400 180.150,214.040 180.000,213.600 180.000 C 213.160 180.000,212.800 179.820,212.800 179.600 C 212.800 179.380,212.440 179.200,212.000 179.200 C 211.560 179.200,211.200 179.020,211.200 178.800 C 211.200 178.580,210.660 178.400,210.000 178.400 C 209.340 178.400,208.800 178.220,208.800 178.000 C 208.800 177.780,208.181 177.600,207.424 177.600 C 206.667 177.600,205.936 177.420,205.800 177.200 C 205.656 176.967,203.404 176.800,200.400 176.800 C 197.396 176.800,195.144 176.967,195.000 177.200 C 194.864 177.420,194.234 177.600,193.600 177.600 C 192.966 177.600,192.336 177.780,192.200 178.000 C 192.064 178.220,191.603 178.400,191.176 178.400 C 190.749 178.400,190.400 178.580,190.400 178.800 C 190.400 179.020,190.040 179.200,189.600 179.200 C 189.160 179.200,188.800 179.380,188.800 179.600 C 188.800 179.820,188.480 180.000,188.088 180.000 C 187.697 180.000,187.117 180.360,186.800 180.800 C 186.483 181.240,185.988 181.600,185.701 181.600 C 185.132 181.600,181.600 184.970,181.600 185.514 C 181.600 185.698,181.257 186.218,180.837 186.668 C 179.883 187.692,178.400 190.562,178.400 191.384 C 178.400 191.723,178.240 192.000,178.044 192.000 C 177.179 192.000,176.366 204.126,177.176 204.936 C 177.409 205.169,177.600 205.853,177.600 206.456 C 177.600 207.059,177.780 207.664,178.000 207.800 C 178.220 207.936,178.400 208.397,178.400 208.824 C 178.400 209.251,178.580 209.600,178.800 209.600 C 179.020 209.600,179.200 209.960,179.200 210.400 C 179.200 210.840,179.380 211.200,179.600 211.200 C 179.820 211.200,180.000 211.520,180.000 211.912 C 180.000 212.303,180.360 212.883,180.800 213.200 C 181.240 213.517,181.600 213.985,181.600 214.240 C 181.600 214.803,184.645 218.000,185.181 218.000 C 185.392 218.000,186.014 218.450,186.564 219.000 C 187.114 219.550,187.842 220.000,188.182 220.000 C 188.522 220.000,188.800 220.180,188.800 220.400 C 188.800 220.620,189.160 220.800,189.600 220.800 C 190.040 220.800,190.400 220.980,190.400 221.200 C 190.400 221.420,190.760 221.600,191.200 221.600 C 191.640 221.600,192.000 221.780,192.000 222.000 C 192.000 222.220,192.529 222.400,193.176 222.400 C 193.823 222.400,194.464 222.580,194.600 222.800 C 194.748 223.039,197.396 223.200,201.200 223.200 C 205.004 223.200,207.652 223.039,207.800 222.800 C 207.936 222.580,208.577 222.400,209.224 222.400 C 209.871 222.400,210.400 222.220,210.400 222.000 C 210.400 221.780,210.760 221.600,211.200 221.600 C 211.640 221.600,212.000 221.420,212.000 221.200 C 212.000 220.980,212.274 220.800,212.609 220.800 C 213.401 220.800,217.600 216.601,217.600 215.809 C 217.600 215.474,217.780 215.200,218.000 215.200 C 218.573 215.200,218.493 213.871,217.846 212.623 C 216.799 210.605,216.204 210.426,210.486 210.413 C 204.554 210.399,202.000 209.500,202.000 207.429 C 202.000 207.083,201.820 206.800,201.600 206.800 C 201.380 206.800,201.200 206.170,201.200 205.400 C 201.200 204.630,201.380 204.000,201.600 204.000 C 201.820 204.000,202.000 203.814,202.000 203.587 C 202.000 203.359,202.624 202.549,203.387 201.787 L 204.773 200.400 218.015 200.400 C 228.310 200.400,231.362 200.515,231.729 200.915 C 233.004 202.310,233.647 204.400,232.800 204.400 C 232.578 204.400,232.400 205.467,232.400 206.800 C 232.400 208.133,232.222 209.200,232.000 209.200 C 231.780 209.200,231.600 209.830,231.600 210.600 C 231.600 211.370,231.420 212.000,231.200 212.000 C 230.980 212.000,230.800 212.439,230.800 212.976 C 230.800 213.513,230.620 214.064,230.400 214.200 C 230.180 214.336,230.000 214.797,230.000 215.224 C 230.000 215.651,229.820 216.000,229.600 216.000 C 229.380 216.000,229.200 216.278,229.200 216.617 C 229.200 216.956,228.840 217.620,228.400 218.092 C 227.960 218.564,227.600 219.187,227.600 219.475 C 227.600 219.764,227.442 220.000,227.249 220.000 C 227.055 220.000,226.680 220.523,226.415 221.163 C 225.728 222.822,221.262 227.225,219.410 228.068 C 218.855 228.321,218.400 228.680,218.400 228.864 C 218.400 229.049,218.164 229.200,217.875 229.200 C 217.587 229.200,216.964 229.560,216.492 230.000 C 216.020 230.440,215.367 230.800,215.040 230.800 C 214.714 230.800,214.336 230.980,214.200 231.200 C 214.064 231.420,213.513 231.600,212.976 231.600 C 212.439 231.600,212.000 231.780,212.000 232.000 C 212.000 232.220,211.460 232.400,210.800 232.400 C 210.140 232.400,209.600 232.580,209.600 232.800 C 209.600 233.020,208.610 233.200,207.400 233.200 C 206.190 233.200,205.200 233.380,205.200 233.600 C 205.200 233.842,203.475 234.000,200.824 234.000 C 198.337 234.000,196.340 233.827,196.200 233.600 C 196.064 233.380,194.973 233.200,193.776 233.200 C 192.579 233.200,191.600 233.020,191.600 232.800 C 191.600 232.580,191.060 232.400,190.400 232.400 C 189.740 232.400,189.200 232.220,189.200 232.000 C 189.200 231.780,188.750 231.600,188.200 231.600 C 187.650 231.600,187.200 231.420,187.200 231.200 C 187.200 230.980,186.947 230.800,186.638 230.800 C 185.972 230.800,182.659 229.132,182.467 228.700 C 182.393 228.535,182.003 228.400,181.600 228.400 C 181.197 228.400,180.807 228.263,180.733 228.095 C 180.660 227.927,179.610 227.090,178.400 226.235 C 177.190 225.379,175.930 224.330,175.600 223.902 C 175.270 223.475,174.640 222.737,174.200 222.263 C 173.760 221.788,173.145 220.905,172.832 220.300 C 172.520 219.695,172.115 219.200,171.932 219.200 C 171.750 219.200,171.600 218.922,171.600 218.583 C 171.600 218.244,171.240 217.580,170.800 217.108 C 170.360 216.636,170.000 216.013,170.000 215.725 C 170.000 215.436,169.820 215.200,169.600 215.200 C 169.380 215.200,169.200 214.750,169.200 214.200 C 169.200 213.650,169.020 213.200,168.800 213.200 C 168.580 213.200,168.400 212.750,168.400 212.200 C 168.400 211.650,168.220 211.200,168.000 211.200 C 167.780 211.200,167.600 210.761,167.600 210.224 C 167.600 209.687,167.420 209.136,167.200 209.000 C 166.980 208.864,166.800 208.054,166.800 207.200 C 166.800 206.346,166.620 205.536,166.400 205.400 C 166.164 205.254,166.000 202.870,166.000 199.600 C 166.000 196.330,166.164 193.946,166.400 193.800 C 166.620 193.664,166.800 192.843,166.800 191.976 C 166.800 191.109,166.980 190.400,167.200 190.400 C 167.420 190.400,167.600 189.860,167.600 189.200 C 167.600 188.540,167.780 188.000,168.000 188.000 C 168.220 188.000,168.400 187.640,168.400 187.200 C 168.400 186.760,168.580 186.400,168.800 186.400 C 169.020 186.400,169.200 186.040,169.200 185.600 C 169.200 185.160,169.380 184.800,169.600 184.800 C 169.820 184.800,170.000 184.440,170.000 184.000 C 170.000 183.560,170.180 183.200,170.400 183.200 C 170.620 183.200,170.800 182.975,170.800 182.700 C 170.801 182.425,171.251 181.677,171.800 181.038 C 172.350 180.399,172.800 179.743,172.800 179.580 C 172.800 179.157,175.981 175.612,177.279 174.589 C 177.565 174.363,178.430 173.742,179.200 173.208 C 179.970 172.675,180.690 172.140,180.800 172.019 C 180.910 171.898,181.495 171.544,182.100 171.232 C 182.705 170.920,183.200 170.515,183.200 170.332 C 183.200 170.150,183.560 170.000,184.000 170.000 C 184.440 170.000,184.800 169.820,184.800 169.600 C 184.800 169.380,185.239 169.200,185.776 169.200 C 186.313 169.200,186.864 169.020,187.000 168.800 C 187.136 168.580,187.597 168.400,188.024 168.400 C 188.451 168.400,188.800 168.220,188.800 168.000 C 188.800 167.780,189.430 167.600,190.200 167.600 C 190.970 167.600,191.600 167.420,191.600 167.200 C 191.600 166.980,192.579 166.800,193.776 166.800 C 194.973 166.800,196.064 166.620,196.200 166.400 C 196.340 166.173,198.337 166.000,200.824 166.000 C 203.475 166.000,205.200 166.158,205.200 166.400 M58.281 168.099 C 59.526 168.655,60.743 169.796,61.500 171.117 C 61.884 171.786,62.000 177.202,62.000 194.395 C 62.000 209.065,62.138 216.800,62.400 216.800 C 62.620 216.800,62.800 217.160,62.800 217.600 C 62.800 218.040,62.980 218.400,63.200 218.400 C 63.420 218.400,63.600 218.660,63.600 218.977 C 63.600 219.295,64.140 219.874,64.800 220.264 C 65.460 220.654,66.000 221.114,66.000 221.286 C 66.000 221.459,68.149 221.600,70.776 221.600 C 73.529 221.600,75.658 221.769,75.800 222.000 C 75.936 222.220,76.362 222.400,76.748 222.400 C 77.133 222.400,78.022 222.961,78.724 223.647 C 81.223 226.090,80.230 230.029,76.667 231.807 C 75.233 232.522,56.000 232.702,56.000 232.000 C 56.000 231.780,55.712 231.600,55.360 231.600 C 54.669 231.600,52.511 229.535,51.700 228.097 C 51.059 226.961,50.961 171.600,51.600 171.600 C 51.820 171.600,52.000 171.322,52.000 170.982 C 52.000 170.193,53.777 168.400,54.558 168.400 C 54.885 168.400,55.264 168.220,55.400 168.000 C 55.736 167.456,56.932 167.497,58.281 168.099 M277.200 168.000 C 277.200 168.220,277.568 168.400,278.018 168.400 C 278.979 168.400,280.800 170.090,280.800 170.982 C 280.800 171.322,280.980 171.600,281.200 171.600 C 281.463 171.600,281.600 181.333,281.600 200.000 C 281.600 218.667,281.463 228.400,281.200 228.400 C 280.980 228.400,280.800 228.678,280.800 229.018 C 280.800 229.910,278.979 231.600,278.018 231.600 C 277.568 231.600,277.200 231.780,277.200 232.000 C 277.200 232.220,276.750 232.400,276.200 232.400 C 275.650 232.400,275.200 232.220,275.200 232.000 C 275.200 231.780,274.840 231.600,274.400 231.600 C 273.960 231.600,273.600 231.420,273.600 231.200 C 273.600 230.980,273.375 230.797,273.100 230.793 C 272.825 230.789,272.195 229.929,271.700 228.881 L 270.800 226.976 270.800 200.016 C 270.800 171.033,270.935 169.200,273.071 169.200 C 273.362 169.200,273.600 169.020,273.600 168.800 C 273.600 168.580,273.960 168.400,274.400 168.400 C 274.840 168.400,275.200 168.220,275.200 168.000 C 275.200 167.780,275.650 167.600,276.200 167.600 C 276.750 167.600,277.200 167.780,277.200 168.000 M306.000 168.000 C 306.000 168.220,306.360 168.400,306.800 168.400 C 307.240 168.400,307.600 168.580,307.600 168.800 C 307.600 169.020,307.838 169.200,308.128 169.200 C 308.741 169.200,309.953 170.534,310.768 172.106 C 311.080 172.708,311.485 173.200,311.668 173.200 C 311.850 173.200,312.000 173.387,312.000 173.616 C 312.000 173.973,313.400 176.201,314.001 176.800 C 314.111 176.910,314.456 177.495,314.768 178.100 C 315.080 178.705,315.485 179.200,315.668 179.200 C 315.850 179.200,316.000 179.520,316.000 179.912 C 316.000 180.303,316.360 180.883,316.800 181.200 C 317.240 181.517,317.600 182.057,317.600 182.400 C 317.600 182.743,317.960 183.283,318.400 183.600 C 318.840 183.917,319.200 184.457,319.200 184.800 C 319.200 185.143,319.560 185.683,320.000 186.000 C 320.440 186.317,320.800 186.897,320.800 187.288 C 320.800 187.680,320.950 188.000,321.132 188.000 C 321.315 188.000,321.720 188.495,322.032 189.100 C 322.345 189.705,322.780 190.405,323.000 190.655 C 324.252 192.081,324.800 192.851,324.800 193.187 C 324.800 193.513,326.170 195.790,327.094 197.000 C 327.262 197.220,327.655 197.895,327.968 198.500 C 328.280 199.105,328.685 199.600,328.868 199.600 C 329.050 199.600,329.200 199.920,329.200 200.312 C 329.200 200.703,329.560 201.283,330.000 201.600 C 330.440 201.917,330.800 202.457,330.800 202.800 C 330.800 203.143,331.160 203.683,331.600 204.000 C 332.040 204.317,332.400 204.814,332.400 205.105 C 332.400 205.396,332.731 205.989,333.136 206.423 C 333.541 206.858,334.126 207.705,334.436 208.307 C 335.279 209.940,336.759 211.301,337.418 211.049 C 337.916 210.857,338.000 208.035,338.000 191.407 C 338.000 176.605,338.119 171.782,338.500 171.117 C 339.366 169.605,340.733 168.400,341.582 168.400 C 342.032 168.400,342.400 168.220,342.400 168.000 C 342.400 166.610,346.934 169.000,347.975 170.938 C 348.994 172.838,349.299 225.519,348.300 227.305 C 347.376 228.959,344.518 231.600,343.653 231.600 C 343.184 231.600,342.800 231.780,342.800 232.000 C 342.800 232.495,341.430 232.523,340.495 232.047 C 340.113 231.852,339.260 231.447,338.600 231.147 C 337.145 230.484,336.767 230.123,336.032 228.700 C 335.720 228.095,335.315 227.600,335.132 227.600 C 334.950 227.600,334.800 227.330,334.800 227.000 C 334.800 226.670,334.650 226.400,334.468 226.400 C 334.285 226.400,333.881 225.905,333.570 225.300 C 333.260 224.695,332.689 223.909,332.303 223.553 C 331.916 223.197,331.600 222.695,331.600 222.436 C 331.600 222.178,331.240 221.580,330.800 221.108 C 330.360 220.636,330.000 220.013,330.000 219.725 C 330.000 219.436,329.820 219.200,329.600 219.200 C 329.380 219.200,329.200 218.964,329.200 218.675 C 329.200 218.387,328.885 217.802,328.500 217.375 C 328.115 216.949,327.545 216.105,327.232 215.500 C 326.920 214.895,326.515 214.400,326.332 214.400 C 326.150 214.400,326.000 214.207,326.000 213.970 C 326.000 213.421,322.417 207.844,321.950 207.667 C 321.758 207.593,321.600 207.228,321.600 206.855 C 321.600 206.482,321.240 205.917,320.800 205.600 C 320.360 205.283,320.000 204.786,320.000 204.495 C 320.000 204.204,319.640 203.580,319.200 203.108 C 318.760 202.636,318.400 202.013,318.400 201.725 C 318.400 201.436,318.220 201.200,318.000 201.200 C 317.780 201.200,317.600 200.964,317.600 200.675 C 317.600 200.387,317.240 199.764,316.800 199.292 C 316.360 198.820,316.000 198.280,316.000 198.092 C 316.000 197.904,315.685 197.402,315.300 196.975 C 314.915 196.549,314.345 195.705,314.032 195.100 C 313.720 194.495,313.315 194.000,313.132 194.000 C 312.950 194.000,312.800 193.770,312.800 193.488 C 312.800 193.207,312.440 192.717,312.000 192.400 C 311.560 192.083,311.200 191.585,311.200 191.294 C 311.200 190.665,309.418 188.800,308.818 188.800 C 308.533 188.800,308.400 195.154,308.400 208.800 C 308.400 221.867,308.261 228.800,308.000 228.800 C 307.780 228.800,307.600 228.988,307.600 229.218 C 307.600 229.937,305.675 231.600,304.842 231.600 C 304.405 231.600,303.936 231.780,303.800 232.000 C 303.664 232.220,303.203 232.400,302.776 232.400 C 302.349 232.400,302.000 232.220,302.000 232.000 C 302.000 231.780,301.712 231.600,301.360 231.600 C 300.530 231.600,298.000 229.070,298.000 228.240 C 298.000 227.888,297.820 227.600,297.600 227.600 C 297.337 227.600,297.200 218.408,297.200 200.824 C 297.200 183.404,297.340 173.961,297.600 173.800 C 297.820 173.664,298.000 173.199,298.000 172.766 C 298.000 171.744,301.344 168.400,302.366 168.400 C 302.799 168.400,303.264 168.220,303.400 168.000 C 303.536 167.780,304.177 167.600,304.824 167.600 C 305.471 167.600,306.000 167.780,306.000 168.000 M116.600 177.200 C 116.464 177.420,115.834 177.600,115.200 177.600 C 114.566 177.600,113.936 177.780,113.800 178.000 C 113.664 178.220,113.203 178.400,112.776 178.400 C 112.349 178.400,112.000 178.580,112.000 178.800 C 112.000 179.020,111.640 179.200,111.200 179.200 C 110.760 179.200,110.400 179.380,110.400 179.600 C 110.400 179.820,110.196 180.000,109.947 180.000 C 109.698 180.000,109.203 180.317,108.847 180.704 C 108.491 181.092,107.525 181.911,106.700 182.525 C 105.875 183.139,105.200 183.829,105.200 184.060 C 105.200 184.290,104.660 184.983,104.000 185.600 C 103.340 186.217,102.800 187.009,102.800 187.360 C 102.800 187.712,102.620 188.000,102.400 188.000 C 102.180 188.000,102.000 188.360,102.000 188.800 C 102.000 189.240,101.820 189.600,101.600 189.600 C 101.380 189.600,101.200 189.960,101.200 190.400 C 101.200 190.840,101.020 191.200,100.800 191.200 C 100.580 191.200,100.400 191.819,100.400 192.576 C 100.400 193.333,100.220 194.064,100.000 194.200 C 99.763 194.346,99.600 196.804,99.600 200.224 C 99.600 203.808,99.752 206.000,100.000 206.000 C 100.220 206.000,100.400 206.630,100.400 207.400 C 100.400 208.170,100.580 208.800,100.800 208.800 C 101.020 208.800,101.200 209.216,101.200 209.725 C 101.200 210.233,101.560 211.036,102.000 211.508 C 102.440 211.980,102.800 212.604,102.800 212.895 C 102.800 213.186,103.160 213.683,103.600 214.000 C 104.040 214.317,104.400 214.807,104.400 215.088 C 104.400 215.370,104.580 215.600,104.800 215.600 C 105.020 215.600,105.200 215.831,105.200 216.114 C 105.200 216.396,105.745 216.949,106.411 217.343 C 107.077 217.736,108.059 218.495,108.593 219.029 C 109.127 219.563,109.752 220.000,109.982 220.000 C 110.212 220.000,110.400 220.180,110.400 220.400 C 110.400 220.620,110.760 220.800,111.200 220.800 C 111.640 220.800,112.000 220.980,112.000 221.200 C 112.000 221.420,112.272 221.600,112.605 221.600 C 112.938 221.600,113.523 221.758,113.905 221.951 C 114.287 222.144,115.243 222.504,116.028 222.751 C 117.826 223.316,127.600 223.357,127.600 222.800 C 127.600 222.580,128.052 222.400,128.605 222.400 C 129.158 222.400,129.923 222.243,130.305 222.050 C 133.710 220.336,134.687 219.758,135.247 219.128 C 135.603 218.728,136.079 218.400,136.305 218.400 C 136.674 218.400,137.636 217.396,139.680 214.876 C 140.631 213.704,141.600 211.757,141.600 211.020 C 141.600 210.679,141.780 210.400,142.000 210.400 C 142.220 210.400,142.400 210.040,142.400 209.600 C 142.400 209.160,142.580 208.800,142.800 208.800 C 143.020 208.800,143.200 208.170,143.200 207.400 C 143.200 206.630,143.380 206.000,143.600 206.000 C 143.849 206.000,144.000 203.733,144.000 200.000 C 144.000 196.267,143.849 194.000,143.600 194.000 C 143.380 194.000,143.200 193.460,143.200 192.800 C 143.200 192.140,143.020 191.600,142.800 191.600 C 142.580 191.600,142.400 191.150,142.400 190.600 C 142.400 190.050,142.220 189.600,142.000 189.600 C 141.780 189.600,141.600 189.253,141.600 188.829 C 141.600 188.404,141.330 187.787,141.000 187.457 C 140.670 187.127,140.400 186.673,140.400 186.448 C 140.400 185.812,134.434 180.000,133.781 180.000 C 133.461 180.000,133.200 179.820,133.200 179.600 C 133.200 179.380,132.840 179.200,132.400 179.200 C 131.960 179.200,131.600 179.020,131.600 178.800 C 131.600 178.580,131.251 178.400,130.824 178.400 C 130.397 178.400,129.936 178.220,129.800 178.000 C 129.664 177.780,128.933 177.600,128.176 177.600 C 127.419 177.600,126.800 177.420,126.800 177.200 C 126.800 176.955,124.875 176.800,121.824 176.800 C 118.937 176.800,116.743 176.968,116.600 177.200 M94.011 323.598 C 79.925 337.677,68.400 349.467,68.400 349.798 C 68.400 350.129,68.220 350.400,68.000 350.400 C 67.428 350.400,67.505 353.845,68.100 354.883 C 68.882 356.248,70.305 357.600,70.958 357.600 C 71.285 357.600,71.664 357.780,71.800 358.000 C 72.978 359.906,76.467 357.551,84.425 349.480 C 88.373 345.476,91.788 342.020,92.013 341.800 C 102.952 331.116,126.800 306.952,126.800 306.553 C 126.800 306.249,126.980 306.000,127.200 306.000 C 127.429 306.000,127.600 304.800,127.600 303.200 C 127.600 301.660,127.441 300.400,127.247 300.400 C 127.052 300.400,126.799 300.040,126.684 299.600 C 126.569 299.160,126.188 298.800,125.837 298.800 C 125.487 298.800,125.200 298.620,125.200 298.400 C 125.200 298.172,124.004 298.000,122.411 298.000 L 119.623 298.000 94.011 323.598 M197.200 298.400 C 197.200 298.620,196.951 298.800,196.646 298.800 C 194.775 298.800,194.800 298.264,194.800 338.204 L 194.800 375.636 195.782 376.618 C 196.322 377.158,196.952 377.600,197.182 377.600 C 197.412 377.600,197.600 377.780,197.600 378.000 C 197.600 379.329,202.469 378.248,204.278 376.518 L 205.200 375.636 205.200 338.204 C 205.200 298.264,205.225 298.800,203.354 298.800 C 203.049 298.800,202.800 298.620,202.800 298.400 C 202.800 298.171,201.600 298.000,200.000 298.000 C 198.400 298.000,197.200 298.171,197.200 298.400 M274.800 298.353 C 274.800 298.548,274.440 298.801,274.000 298.916 C 273.560 299.031,273.200 299.412,273.200 299.763 C 273.200 300.113,273.020 300.400,272.800 300.400 C 272.571 300.400,272.400 301.600,272.400 303.200 C 272.400 304.800,272.571 306.000,272.800 306.000 C 273.020 306.000,273.200 306.172,273.200 306.381 C 273.200 306.935,276.508 310.449,284.000 317.850 C 287.630 321.437,291.140 324.919,291.800 325.590 C 292.765 326.570,299.421 333.222,308.111 341.891 C 308.723 342.501,312.267 346.096,315.988 349.880 C 323.524 357.544,327.038 359.880,328.200 358.000 C 328.336 357.780,328.715 357.600,329.042 357.600 C 329.695 357.600,331.118 356.248,331.900 354.883 C 332.495 353.845,332.572 350.400,332.000 350.400 C 331.780 350.400,331.600 350.126,331.600 349.792 C 331.600 349.458,320.076 337.668,305.992 323.592 L 280.384 298.000 277.592 298.000 C 276.056 298.000,274.800 298.159,274.800 298.353 " stroke="none" fill="#040404" fill-rule="evenodd"></path><path id="path1" d="" stroke="none" fill="#080404" fill-rule="evenodd"></path><path id="path2" d="" stroke="none" fill="#080404" fill-rule="evenodd"></path><path id="path3" d="" stroke="none" fill="#080404" fill-rule="evenodd"></path><path id="path4" d="" stroke="none" fill="#080404" fill-rule="evenodd"></path></g></svg>