<?xml version="1.0" ?><svg viewBox="0 0 500 500" xmlns="http://www.w3.org/2000/svg"><defs><style>.cls-1{fill:#294165;}.cls-1,.cls-10,.cls-2,.cls-5,.cls-6,.cls-7,.cls-9{stroke:#000;stroke-miterlimit:10;}.cls-1,.cls-2,.cls-5,.cls-9{stroke-width:5px;}.cls-2,.cls-6{fill:#00a1ff;}.cls-3,.cls-7{fill:#0089ce;}.cls-4{opacity:0.1;}.cls-5{fill:#1e1e1e;}.cls-10,.cls-6,.cls-7{stroke-width:2.5px;}.cls-8{fill:#fff;}.cls-10,.cls-9{fill:none;}.cls-11{fill:#f7d500;}.cls-12{fill:#c21f1b;}.cls-13{fill:#479d23;}.cls-14{fill:#0081c8;}</style></defs><title/><g data-name="图层 1" id="图层_1"><path class="cls-1" d="M351,172.4a9.93,9.93,0,0,0-5.68-5.53l-32.55-12.31a20.42,20.42,0,0,0-16.71,1L287.68,160H212.32L204,155.58a20.42,20.42,0,0,0-16.71-1l-32.55,12.31A9.93,9.93,0,0,0,149,172.4l-2.53,6.19v34.35h207V178.6Z"/><path class="cls-2" d="M360.11,184.51a11.25,11.25,0,0,0-6.62-5.92l-38.34-12.83a15.54,15.54,0,0,0-11.82.81,24.3,24.3,0,0,1-10.74,2.68H207.41a24.3,24.3,0,0,1-10.74-2.68,15.54,15.54,0,0,0-11.82-.81L146.51,178.6a11.24,11.24,0,0,0-6.62,5.91c-11.67,25-66.21,148.77-9.91,162a10.22,10.22,0,0,0,9.54-2.75l40.54-40.54a18.82,18.82,0,0,1,13.31-5.51H306.62a18.82,18.82,0,0,1,13.31,5.51l40.54,40.54a10.22,10.22,0,0,0,9.54,2.75C426.32,333.28,371.78,209.54,360.11,184.51Z"/><path class="cls-3" d="M201.59,171.07l19.94,22.85a6.56,6.56,0,0,0,4.94,2.25h47.22a6.56,6.56,0,0,0,4.94-2.25l19.94-22.85c.32-.36.66-.71,1-1h-99C200.93,170.36,201.27,170.7,201.59,171.07Z"/><circle class="cls-2" cx="230.1" cy="211.49" r="6.65"/><circle class="cls-2" cx="269.9" cy="211.49" r="6.65"/><circle class="cls-4" cx="177.02" cy="211.65" r="27.15"/><circle class="cls-4" cx="289.05" cy="256.19" r="27.15"/><circle class="cls-5" cx="177.02" cy="211.65" r="22.23"/><circle class="cls-4" cx="213.12" cy="258.93" r="24.01"/><circle class="cls-6" cx="177.02" cy="211.65" r="15.58"/><circle class="cls-7" cx="177.02" cy="211.65" r="9.09"/><circle class="cls-5" cx="289.05" cy="256.19" r="22.23"/><circle class="cls-6" cx="289.05" cy="256.19" r="15.58"/><circle class="cls-7" cx="289.05" cy="256.19" r="9.09"/><path class="cls-2" d="M226.05,252.87h-6.87V246a6.06,6.06,0,0,0-12.12,0v6.87h-6.87a6.06,6.06,0,0,0,0,12.12h6.87v6.87a6.06,6.06,0,0,0,12.12,0V265h6.87a6.06,6.06,0,1,0,0-12.12Z"/><rect class="cls-2" height="19.6" rx="9.8" ry="9.8" width="19.6" x="313.17" y="181.67"/><rect class="cls-2" height="19.6" rx="9.8" ry="9.8" transform="translate(554.8 -131.5) rotate(90)" width="19.6" x="333.35" y="201.85"/><rect class="cls-2" height="19.6" rx="9.8" ry="9.8" transform="translate(645.95 463.66) rotate(180)" width="19.6" x="313.17" y="222.03"/><rect class="cls-2" height="19.6" rx="9.8" ry="9.8" transform="translate(91.15 514.45) rotate(-90)" width="19.6" x="293" y="201.85"/><circle class="cls-8" cx="250.08" cy="184.1" r="10.08"/><path class="cls-3" d="M252.79,178.74l-8.07,8.07a1.88,1.88,0,0,0,2.65,2.65l8.07-8.07a1.88,1.88,0,0,0-2.65-2.65Z"/><path class="cls-3" d="M255.44,186.8l-8.07-8.07a1.88,1.88,0,0,0-2.65,2.65l8.07,8.07a1.88,1.88,0,0,0,2.65-2.65Z"/><path class="cls-9" d="M360.11,184.85a11.25,11.25,0,0,0-6.62-5.92L315.15,166.1a15.54,15.54,0,0,0-11.82.81,24.3,24.3,0,0,1-10.74,2.68H207.41a24.3,24.3,0,0,1-10.74-2.68,15.54,15.54,0,0,0-11.82-.81l-38.34,12.83a11.24,11.24,0,0,0-6.62,5.91c-11.67,25-66.21,148.77-9.91,162a10.22,10.22,0,0,0,9.54-2.75l40.54-40.54A18.82,18.82,0,0,1,193.38,298H306.62a18.82,18.82,0,0,1,13.31,5.51l40.54,40.54a10.22,10.22,0,0,0,9.54,2.75C426.32,333.61,371.78,209.87,360.11,184.85Z"/><line class="cls-10" x1="212.32" x2="212.32" y1="159.96" y2="169.26"/><line class="cls-10" x1="287.68" x2="287.68" y1="159.96" y2="169.26"/><rect class="cls-11" height="3.49" rx="1.74" ry="1.74" width="3.49" x="321.23" y="206.32"/><rect class="cls-12" height="3.49" rx="1.74" ry="1.74" transform="translate(538.22 -114.92) rotate(90)" width="3.49" x="324.82" y="209.91"/><rect class="cls-13" height="3.49" rx="1.74" ry="1.74" transform="translate(645.95 430.48) rotate(180)" width="3.49" x="321.23" y="213.5"/><rect class="cls-14" height="3.49" rx="1.74" ry="1.74" transform="translate(107.73 531.04) rotate(-90)" width="3.49" x="317.64" y="209.91"/></g></svg>